<?xml version="1.0" encoding="UTF-8" standalone="no" ?>
<!DOCTYPE svg PUBLIC "-//W3C//DTD SVG 1.1//EN" "http://www.w3.org/Graphics/SVG/1.1/DTD/svg11.dtd">
<svg xmlns="http://www.w3.org/2000/svg" xmlns:xlink="http://www.w3.org/1999/xlink" version="1.1" width="1280" height="1024" viewBox="0 0 1280 1024" xml:space="preserve">
<desc>Created with Fabric.js 5.3.0</desc>
<defs>
</defs>
<g transform="matrix(1 0 0 1 640 512)" id="background-logo"  >
<rect style="stroke: none; stroke-width: 0; stroke-dasharray: none; stroke-linecap: butt; stroke-dashoffset: 0; stroke-linejoin: miter; stroke-miterlimit: 4; fill: rgb(255,255,255); fill-rule: nonzero; opacity: 1;"  paint-order="stroke"  x="-640" y="-512" rx="0" ry="0" width="1280" height="1024" />
</g>
<g transform="matrix(2.553758739649353 0 0 2.553758739649353 640 396.7651254901486)" id="logo-logo"  >
<g style=""  paint-order="stroke"   >
		<g transform="matrix(1.1956345759739788 0 0 1.1956345759739788 -52.19116605295187 -51.11335086241925)"  >
<path style="stroke: none; stroke-width: 1; stroke-dasharray: none; stroke-linecap: butt; stroke-dashoffset: 0; stroke-linejoin: miter; stroke-miterlimit: 4; fill: rgb(0,0,0); fill-rule: nonzero; opacity: 1;"  paint-order="stroke"  transform=" translate(-100.28792184999998, -101.2500267)" d="M 82.7144012 84.9463196 L 82.7144012 110.6124191 C 81.56209559999999 111.2398834 80.77092739999999 112.44689939999999 80.77092739999999 113.8512726 C 80.77092739999999 115.8960037 82.42853539999999 117.5537338 84.47330469999999 117.5537338 C 86.51807399999998 117.5537338 88.17568199999998 115.89600370000001 88.17568199999998 113.8512726 C 88.17568199999998 112.4468994 87.38451379999998 111.2398834 86.23220819999997 110.6124191 L 86.23220819999997 88.4641342 L 119.80491629999997 88.4641342 L 119.80491629999997 84.94631960000001 L 82.7144012 84.94631960000001 z" stroke-linecap="round" />
</g>
		<g transform="matrix(1.1956345759739788 0 0 1.1956345759739788 -55.50796815853653 24.409565026902555)"  >
<path style="stroke: none; stroke-width: 1; stroke-dasharray: none; stroke-linecap: butt; stroke-dashoffset: 0; stroke-linejoin: miter; stroke-miterlimit: 4; fill: rgb(0,0,0); fill-rule: nonzero; opacity: 1;"  paint-order="stroke"  transform=" translate(-97.51382834999998, -164.41557695)" d="M 112.6868515 197.5924835 C 111.3542709 197.5924835 110.19599910000001 198.3027496 109.5439224 199.3591156 L 86.2322083 199.3591156 L 86.2322083 144.7592163 L 90.30821999999999 144.7592163 L 90.30821999999999 123.83391569999999 L 78.6383896 123.83391569999999 L 78.6383896 144.7592163 L 82.71440129999999 144.7592163 L 82.71440129999999 202.8769226 L 109.35188299999999 202.8769226 C 109.94641879999999 204.1268921 111.21054849999999 204.9972382 112.68685159999998 204.9972382 C 114.73165899999998 204.9972382 116.38926709999998 203.3396759 116.38926709999998 201.2949524 C 116.389267 199.2500458 114.7316589 197.5924835 112.6868515 197.5924835 z" stroke-linecap="round" />
</g>
		<g transform="matrix(1.1956345759739788 0 0 1.1956345759739788 48.77834127915435 -24.409574293070506)"  >
<path style="stroke: none; stroke-width: 1; stroke-dasharray: none; stroke-linecap: butt; stroke-dashoffset: 0; stroke-linejoin: miter; stroke-miterlimit: 4; fill: rgb(0,0,0); fill-rule: nonzero; opacity: 1;"  paint-order="stroke"  transform=" translate(-184.7363891, -123.58442310000001)" d="M 205.1643066 143.2407837 L 205.1643066 85.1230698 L 167.2697448 85.1230698 C 166.6752166 83.87311559999999 165.41113270000002 83.0027695 163.9348754 83.0027695 C 161.8901061 83.0027695 160.2324523 84.6604996 160.2324523 86.7052231 C 160.2324523 88.74995419999999 161.8901061 90.4075165 163.9348754 90.4075165 C 165.2674407 90.4075165 166.42576590000002 89.6972504 167.07783500000002 88.6408768 L 201.64649960000003 88.6408768 L 201.64649960000003 143.2407837 L 197.57049560000002 143.2407837 L 197.57049560000002 164.16607670000002 L 209.24032590000002 164.16607670000002 L 209.24032590000002 143.2407837 L 205.1643066 143.2407837 z" stroke-linecap="round" />
</g>
		<g transform="matrix(1.1956345759739788 0 0 1.1956345759739788 28.149029156104405 -28.349530080032963)"  >
<path style="stroke: none; stroke-width: 1; stroke-dasharray: none; stroke-linecap: butt; stroke-dashoffset: 0; stroke-linejoin: miter; stroke-miterlimit: 4; fill: rgb(0,0,0); fill-rule: nonzero; opacity: 1;"  paint-order="stroke"  transform=" translate(-167.48252864999998, -120.28913885000003)" d="M 182.030899 129.9019623 L 188.6149292 136.48600770000002 C 188.5613403 136.73678590000003 188.5302887 136.9958191 188.5302887 137.2625733 C 188.5302887 139.30729680000002 190.1878967 140.96502690000003 192.232666 140.96502690000003 C 194.27743529999998 140.96502690000003 195.9350433 139.30729680000002 195.9350433 137.2625733 C 195.9350433 135.2178498 194.27743529999998 133.56028750000002 192.232666 133.56028750000002 C 191.767395 133.56028750000002 191.3266296 133.6557923 190.9164123 133.812439 L 185.54870599999998 128.44468690000002 L 185.54870599999998 101.55680850000002 L 145.97137449999997 101.55680850000002 C 145.34385679999997 100.40441130000002 144.13679499999998 99.61325080000002 142.73239129999996 99.61325080000002 C 140.68760679999997 99.61325080000002 139.03001399999997 101.27098090000001 139.03001399999997 103.31571200000002 C 139.03001399999997 105.36043550000002 140.68760679999997 107.01799780000002 142.73239129999996 107.01799780000002 C 144.13679499999995 107.01799780000002 145.34381099999996 106.22683720000002 145.97132869999996 105.07461550000002 L 182.03089899999995 105.07461550000002 L 182.03089899999995 129.9019623 z" stroke-linecap="round" />
</g>
		<g transform="matrix(1.1956345759739788 0 0 1.1956345759739788 43.246779999747844 51.32107156595316)"  >
<path style="stroke: none; stroke-width: 1; stroke-dasharray: none; stroke-linecap: butt; stroke-dashoffset: 0; stroke-linejoin: miter; stroke-miterlimit: 4; fill: rgb(0,0,0); fill-rule: nonzero; opacity: 1;"  paint-order="stroke"  transform=" translate(-180.1099243, -186.92371370000004)" d="M 201.6464996 199.3589478 L 161.9008331 199.35911560000002 C 161.248764 198.30274960000003 160.0904388 197.59248350000001 158.7579193 197.59248350000001 C 156.7131348 197.59248350000001 155.055542 199.2500458 155.055542 201.29495240000003 C 155.055542 203.33967590000003 156.7131348 204.99723820000003 158.7579193 204.99723820000003 C 160.2342224 204.99723820000003 161.4983368 204.12689210000002 162.0928802 202.87692260000003 L 205.1643066 202.87692260000003 L 205.1643066 168.85018920000005 L 201.6464996 168.85018920000005 L 201.6464996 199.3589478 z" stroke-linecap="round" />
</g>
		<g transform="matrix(1.1956345759739788 0 0 1.1956345759739788 4.483565813016071 -4.320414958915961)"  >
<path style="stroke: none; stroke-width: 1; stroke-dasharray: none; stroke-linecap: butt; stroke-dashoffset: 0; stroke-linejoin: miter; stroke-miterlimit: 4; fill: rgb(0,0,0); fill-rule: nonzero; opacity: 1;"  paint-order="stroke"  transform=" translate(-147.68930435, -140.38651275)" d="M 190.4729004 127.0013199 L 193.9907074 127.0013199 L 193.9907074 93.1106262 L 137.46266169999998 93.1106262 L 129.0197906 101.5533676 L 101.3879013 101.5533676 L 101.3879013 185.7205658 L 120.9470901 185.7205658 C 121.5748596 186.871933 122.7813949 187.6623993 124.18517299999999 187.6623993 C 126.22994229999999 187.6623993 127.8875427 186.004837 127.8875427 183.9601135 C 127.8875427 181.91539 126.22994229999999 180.2576599 124.18517299999999 180.2576599 C 122.78011319999999 180.2576599 121.57262419999999 181.0494995 120.94536589999998 182.2027588 L 104.90571589999999 182.2027588 L 104.90571589999999 105.0711823 L 130.4770355 105.0711823 L 138.9197387 96.62860880000001 L 190.47290030000002 96.62844100000001 L 190.47290030000002 127.0013199 z" stroke-linecap="round" />
</g>
		<g transform="matrix(1.1956345759739788 0 0 1.1956345759739788 -0.5658265903635993 1.1344717696765656)"  >
<path style="stroke: none; stroke-width: 1; stroke-dasharray: none; stroke-linecap: butt; stroke-dashoffset: 0; stroke-linejoin: miter; stroke-miterlimit: 4; fill: rgb(0,0,0); fill-rule: nonzero; opacity: 1;"  paint-order="stroke"  transform=" translate(-143.466114, -144.9488488)" d="M 176.7871094 133.1724243 L 176.7871094 110.31783289999998 L 110.145752 110.31783289999998 L 110.145752 176.959198 L 176.78710940000002 176.959198 L 176.78710940000002 152.57724 L 182.0327454 157.82286069999998 L 182.0326996 182.20429989999997 L 143.1921997 182.20429989999997 L 134.7494202 190.64704889999996 L 96.4584656 190.64704889999996 L 96.4584656 96.6301575 L 124.5653839 96.6301575 L 132.7771454 88.4182663 L 152.534668 88.4182663 L 152.534668 84.9004593 L 131.32002260000002 84.9004593 L 123.10818480000002 93.1123428 L 92.9406509 93.1123428 L 92.9406509 194.164856 L 136.2065734 194.164856 L 144.6492766 185.72229009999998 L 185.5505065 185.722107 L 185.5505065 156.3657532 L 176.7871093 147.6021424 L 176.7871093 143.1318818 L 172.6783294 139.0231934 L 170.7153777 139.0231934 C 170.08923330000002 140.1769562 168.8650054 140.9650269 167.45787040000002 140.9650269 C 165.4175719 140.9650269 163.75717150000003 139.3045502 163.75717150000003 137.2642823 C 163.75717150000003 135.2168122 165.4175719 133.5635529 167.45787040000002 133.5635529 C 168.86500540000003 133.5635529 170.09623710000002 134.3514405 170.72241200000002 135.5053864 L 174.13471970000003 135.5053864 L 176.78710920000003 138.1578217 L 176.78710920000003 138.1473542 L 190.47377000000003 151.8339997 L 190.47377000000003 190.6441193 L 149.24707020000002 190.6441193 L 140.355194 199.5360413 L 127.4241561 199.5360413 C 126.79664600000001 198.3836518 125.58963 197.59248359999998 124.1851729 197.59248359999998 C 122.1404036 197.59248359999998 120.4827956 199.25004589999998 120.4827956 201.2949525 C 120.4827956 203.339676 122.1404036 204.9972383 124.1851729 204.9972383 C 125.5895918 204.9972383 126.7965621 204.2060701 127.4240721 203.0538484 L 141.8125609 203.0538484 L 150.7043151 194.1619417 L 193.9915771 194.1619417 L 193.9915771 150.376709 L 176.7871094 133.1724243 z" stroke-linecap="round" />
</g>
		<g transform="matrix(1.1956345759739788 0 0 1.1956345759739788 -0.5648049206183714 -0.43210777589430904)"  >
<polygon style="stroke: none; stroke-width: 1; stroke-dasharray: none; stroke-linecap: butt; stroke-dashoffset: 0; stroke-linejoin: miter; stroke-miterlimit: 4; fill: rgb(0,0,0); fill-rule: nonzero; opacity: 1;"  paint-order="stroke"  points="27.5198326,-27.519817349999997 27.5198326,-24.97987744999999 -24.452274300000013,-24.97987744999999 -24.452274300000013,27.51981735000001 -27.5198326,27.51981735000001 -27.5198326,-27.519817349999997 " />
</g>
</g>
</g>
<g transform="matrix(1.9211538461538462 0 0 1.9211538461538462 640.3754713697464 630.4539210399304)" id="text-logo"  >
<g style=""  paint-order="stroke"   >
		<g transform="matrix(1 0 0 1 0 0)" id="text-logo-path-0"  >
<path style="stroke: none; stroke-width: 0; stroke-dasharray: none; stroke-linecap: butt; stroke-dashoffset: 0; stroke-linejoin: miter; stroke-miterlimit: 4; fill: rgb(0,0,0); fill-rule: nonzero; opacity: 1;"  paint-order="stroke"  transform=" translate(-265.18999999999994, 22.27)" d="M 20.14 0.49 C 31.07 0.49 36.65 -3.38 36.9 -11.22 L 36.9 -18.08 L 21.17 -18.08 L 21.17 -11.22 L 28.52 -11.22 C 28.18 -7.99 24.45 -6.37 20.14 -6.37 C 13.82 -6.37 10.78 -9.6 10.78 -17.2 C 10.78 -24.5 13.62 -27.93 20.14 -27.93 C 24.89 -27.93 28.62 -26.46 28.62 -22.54 L 36.95 -22.54 C 36.36 -30.72 29.94 -34.79 20.14 -34.79 C 8.18 -34.79 2.45 -29.4 2.45 -17.2 C 2.45 -5.24 7.84 0.49 20.14 0.49 Z M 60.86 -3.04 L 60.86 0 L 47.58 0 L 47.58 -3.04 L 51.5 -4.26 L 51.5 -30.67 L 47.58 -31.95 L 47.58 -34.99 L 60.86 -34.99 L 60.86 -31.95 L 56.94 -30.67 L 56.94 -4.26 L 60.86 -3.04 Z M 54.29 -45.03 L 54.29 -45.03 C 55.13 -45.03 55.81 -44.79 56.4 -44.34 C 56.99 -43.9 57.28 -43.12 57.28 -42.04 L 57.28 -42.04 C 57.28 -41.01 56.99 -40.23 56.4 -39.79 C 55.81 -39.3 55.13 -39.05 54.29 -39.05 L 54.29 -39.05 C 53.46 -39.05 52.77 -39.3 52.19 -39.79 C 51.6 -40.23 51.3 -41.01 51.3 -42.04 L 51.3 -42.04 C 51.3 -43.12 51.6 -43.9 52.19 -44.34 C 52.77 -44.79 53.46 -45.03 54.29 -45.03 Z M 82.32 0 L 90.65 0 L 90.65 -27.44 L 101.43 -27.44 L 101.43 -34.3 L 71.54 -34.3 L 71.54 -27.44 L 82.32 -27.44 Z M 139.26 0 L 147.59 0 L 134.6 -34.3 L 125.78 -34.3 L 112.8 0 L 121.13 0 L 123.53 -6.37 L 136.86 -6.37 Z M 126.13 -13.23 L 130.19 -23.96 L 134.26 -13.23 Z M 186 0 L 194.33 0 L 194.33 -27.44 L 205.11 -27.44 L 205.11 -34.3 L 175.22 -34.3 L 175.22 -27.44 L 186 -27.44 Z M 216.48 0 L 244.41 0 L 244.41 -6.86 L 224.81 -6.86 L 224.81 -13.72 L 239.51 -13.72 L 239.51 -20.58 L 224.81 -20.58 L 224.81 -27.44 L 244.41 -27.44 L 244.41 -34.3 L 216.48 -34.3 Z M 255.78 0 L 264.11 0 L 264.11 -12.3 L 265.97 -14.11 L 278.32 0 L 288.61 0 L 271.51 -19.5 L 286.65 -34.3 L 276.36 -34.3 L 264.11 -22.34 L 264.11 -34.3 L 255.78 -34.3 Z M 322.52 0 L 332.81 0 L 332.81 -34.3 L 324.48 -34.3 L 324.48 -10.63 L 310.27 -34.3 L 299.98 -34.3 L 299.98 0 L 308.31 0 L 308.31 -23.67 Z M 361.87 0.49 C 373.58 0.49 379.46 -5.19 379.46 -17.2 C 379.46 -28.96 373.97 -34.79 361.87 -34.79 C 350.06 -34.79 344.18 -29.3 344.18 -17.2 C 344.18 -5.39 349.71 0.49 361.87 0.49 Z M 352.51 -17.2 C 352.51 -24.4 355.45 -27.93 361.87 -27.93 C 367.99 -27.93 371.13 -24.5 371.13 -17.2 C 371.13 -9.95 368.28 -6.37 361.87 -6.37 C 355.59 -6.37 352.51 -9.75 352.51 -17.2 Z M 390.82 0 L 418.75 0 L 418.75 -6.86 L 399.15 -6.86 L 399.15 -34.3 L 390.82 -34.3 Z M 447.81 0.49 C 459.52 0.49 465.4 -5.19 465.4 -17.2 C 465.4 -28.96 459.91 -34.79 447.81 -34.79 C 436 -34.79 430.12 -29.3 430.12 -17.2 C 430.12 -5.39 435.66 0.49 447.81 0.49 Z M 438.45 -17.2 C 438.45 -24.4 441.39 -27.93 447.81 -27.93 C 453.94 -27.93 457.07 -24.5 457.07 -17.2 C 457.07 -9.95 454.23 -6.37 447.81 -6.37 C 441.54 -6.37 438.45 -9.75 438.45 -17.2 Z M 490.39 0.49 C 499.56 0.49 504.01 -3.72 504.01 -13.13 L 504.01 -34.3 L 495.68 -34.3 L 495.68 -13.13 C 495.68 -8.58 494.07 -6.37 490.39 -6.37 C 486.82 -6.37 485.1 -8.43 485.1 -13.13 L 476.77 -13.13 C 476.77 -3.97 480.98 0.49 490.39 0.49 Z M 527.93 -3.04 L 527.93 0 L 514.65 0 L 514.65 -3.04 L 518.57 -4.26 L 518.57 -30.67 L 514.65 -31.95 L 514.65 -34.99 L 527.93 -34.99 L 527.93 -31.95 L 524.01 -30.67 L 524.01 -4.26 L 527.93 -3.04 Z M 521.36 -45.03 L 521.36 -45.03 C 522.19 -45.03 522.88 -44.79 523.47 -44.34 C 524.06 -43.9 524.35 -43.12 524.35 -42.04 L 524.35 -42.04 C 524.35 -41.01 524.06 -40.23 523.47 -39.79 C 522.88 -39.3 522.19 -39.05 521.36 -39.05 L 521.36 -39.05 C 520.53 -39.05 519.84 -39.3 519.25 -39.79 C 518.66 -40.23 518.37 -41.01 518.37 -42.04 L 518.37 -42.04 C 518.37 -43.12 518.66 -43.9 519.25 -44.34 C 519.84 -44.79 520.53 -45.03 521.36 -45.03 Z" stroke-linecap="round" />
</g>
</g>
</g>
<g transform="matrix(1.9211538461538462 0 0 1.9211538461538462 639.8943365384616 735.3848850399304)" id="tagline-62a9f793-84fd-4093-a15c-9d71108860ea-logo"  >
<g style=""  paint-order="stroke"   >
		<g transform="matrix(1 0 0 1 -5.684342e-14 0)" id="tagline-62a9f793-84fd-4093-a15c-9d71108860ea-logo-path-0"  >
<path style="stroke: none; stroke-width: 0; stroke-dasharray: none; stroke-linecap: butt; stroke-dashoffset: 0; stroke-linejoin: miter; stroke-miterlimit: 4; fill: rgb(0,0,0); fill-rule: nonzero; opacity: 1;"  paint-order="stroke"  transform=" translate(-205.76999999999998, 5.5)" d="M 6.01 0 L 9 0 L 12.56 -11.33 L 16.13 0 L 19.12 0 L 24.4 -15.4 L 21.63 -15.4 L 17.69 -3.89 L 14.06 -15.4 L 11.07 -15.4 L 7.44 -3.89 L 3.5 -15.4 L 0.73 -15.4 Z M 32.14 -5.5 C 32.14 -1.47 33.81 0.22 37.73 0.22 C 39.89 0.22 41.49 -0.24 42.46 -1.72 L 40.26 -3.17 C 39.86 -2.57 39.38 -2.42 37.73 -2.42 C 35.51 -2.42 34.94 -2.68 34.8 -4.42 L 43.27 -4.42 C 43.3 -4.77 43.32 -5.1 43.32 -5.5 C 43.32 -9.61 41.6 -11.22 37.73 -11.22 C 33.86 -11.22 32.14 -9.61 32.14 -5.5 Z M 34.8 -6.62 C 34.94 -8.36 35.51 -8.58 37.73 -8.58 C 39.95 -8.58 40.52 -8.36 40.66 -6.62 Z M 75.44 -11 L 78.08 -11 C 78.08 -14.3 76.43 -15.62 71.94 -15.62 C 66.59 -15.62 65.27 -13.75 65.27 -10.65 C 65.27 -8.67 66.66 -6.62 69.45 -6.49 L 74.27 -6.29 C 75.81 -6.23 75.94 -6.12 75.94 -4.75 C 75.94 -2.73 75.64 -2.42 71.92 -2.42 C 68.05 -2.42 67.91 -2.55 67.91 -4.75 L 65.27 -4.75 C 65.27 -1.32 66.68 0.22 71.92 0.22 C 77 0.22 78.58 -1.45 78.58 -4.75 C 78.58 -7.48 77.04 -8.82 74.4 -8.93 L 69.59 -9.13 C 68.22 -9.2 67.91 -9.68 67.91 -10.65 C 67.91 -12.69 68.13 -12.98 71.94 -12.98 C 75.28 -12.98 75.44 -12.85 75.44 -11 Z M 89.41 -12.76 C 90.2 -12.76 90.84 -13.4 90.84 -14.19 C 90.84 -14.98 90.2 -15.62 89.41 -15.62 C 88.62 -15.62 87.98 -14.98 87.98 -14.19 C 87.98 -13.4 88.62 -12.76 89.41 -12.76 Z M 88.09 0 L 90.73 0 L 90.73 -11 L 88.09 -11 Z M 108.33 -5.5 L 108.33 0 L 110.97 0 L 110.97 -5.5 C 110.97 -8.27 111.08 -8.58 113.7 -8.58 C 116.09 -8.58 116.42 -8.27 116.42 -5.5 L 116.42 0 L 119.06 0 L 119.06 -5.5 C 119.06 -9.61 117.35 -11.22 113.7 -11.22 C 111.54 -11.22 110.46 -10.71 109.93 -9.57 C 109.05 -10.71 107.62 -11.22 105.6 -11.22 C 104.13 -11.22 103.31 -10.98 102.87 -10.47 L 102.87 -11 L 100.23 -11 L 100.23 0 L 102.87 0 L 102.87 -5.5 C 102.87 -8.27 102.98 -8.58 105.6 -8.58 C 108 -8.58 108.33 -8.27 108.33 -5.5 Z M 134.16 0.22 C 138.07 0.22 139.74 -1.47 139.74 -5.5 C 139.74 -9.61 138.03 -11.22 134.16 -11.22 C 132.51 -11.22 131.65 -10.93 131.21 -10.27 L 131.21 -11 L 128.57 -11 L 128.57 4.4 L 131.21 4.4 L 131.21 -0.73 C 131.65 -0.09 132.51 0.22 134.16 0.22 Z M 131.21 -5.5 C 131.21 -8.27 131.54 -8.58 134.16 -8.58 C 136.77 -8.58 137.1 -8.27 137.1 -5.5 C 137.1 -2.77 136.77 -2.42 134.16 -2.42 C 131.54 -2.42 131.21 -2.77 131.21 -5.5 Z M 151.89 0 L 151.89 -15.4 L 149.25 -15.4 L 149.25 0 Z M 162.71 -12.76 C 163.5 -12.76 164.14 -13.4 164.14 -14.19 C 164.14 -14.98 163.5 -15.62 162.71 -15.62 C 161.92 -15.62 161.28 -14.98 161.28 -14.19 C 161.28 -13.4 161.92 -12.76 162.71 -12.76 Z M 161.39 0 L 164.03 0 L 164.03 -11 L 161.39 -11 Z M 173.54 -8.8 L 174.86 -8.8 L 174.86 0 L 177.5 0 L 177.5 -8.8 L 179.7 -8.8 L 179.7 -11 L 177.52 -11 C 177.65 -12.76 178.22 -12.98 180.44 -12.98 L 180.44 -15.62 C 176.95 -15.62 175.21 -14.3 174.9 -11 L 173.54 -11 Z M 192.59 -5.72 L 192.59 -11 L 189.95 -11 L 189.95 -5.72 C 189.95 -1.61 191.66 0 195.54 0 C 197.19 0 198.04 -0.29 198.48 -0.95 L 198.48 0.55 C 198.48 1.72 197.76 1.98 195.91 1.98 C 194.08 1.98 193.36 1.72 193.36 0.55 L 190.72 0.55 C 190.72 3.3 192.92 4.62 195.91 4.62 C 198.92 4.62 201.12 3.32 201.12 0.55 L 201.12 -11 L 198.48 -11 L 198.48 -5.72 C 198.48 -2.95 198.15 -2.64 195.54 -2.64 C 192.92 -2.64 192.59 -2.95 192.59 -5.72 Z M 230.56 0 L 230.56 -12.76 L 235.4 -12.76 L 235.4 -15.4 L 223.08 -15.4 L 223.08 -12.76 L 227.92 -12.76 L 227.92 0 Z M 243.58 -5.5 C 243.58 -1.47 245.26 0.22 249.17 0.22 C 251.33 0.22 252.93 -0.24 253.9 -1.72 L 251.7 -3.17 C 251.31 -2.57 250.82 -2.42 249.17 -2.42 C 246.95 -2.42 246.38 -2.68 246.25 -4.42 L 254.72 -4.42 C 254.74 -4.77 254.76 -5.1 254.76 -5.5 C 254.76 -9.61 253.04 -11.22 249.17 -11.22 C 245.3 -11.22 243.58 -9.61 243.58 -5.5 Z M 246.25 -6.62 C 246.38 -8.36 246.95 -8.58 249.17 -8.58 C 251.39 -8.58 251.97 -8.36 252.1 -6.62 Z M 274.58 -1.72 L 272.38 -3.17 C 271.99 -2.57 271.5 -2.42 269.85 -2.42 C 267.23 -2.42 266.9 -2.77 266.9 -5.5 C 266.9 -8.27 267.23 -8.58 269.85 -8.58 C 271.22 -8.58 271.77 -8.45 272.21 -8.05 L 273.97 -10.03 C 272.98 -10.91 271.59 -11.22 269.85 -11.22 C 265.98 -11.22 264.26 -9.61 264.26 -5.5 C 264.26 -1.47 265.94 0.22 269.85 0.22 C 272.01 0.22 273.61 -0.24 274.58 -1.72 Z M 292.62 -5.5 L 292.62 0 L 295.26 0 L 295.26 -5.5 C 295.26 -9.61 293.55 -11.22 289.67 -11.22 C 288.02 -11.22 287.17 -10.93 286.73 -10.27 L 286.73 -15.4 L 284.09 -15.4 L 284.09 0 L 286.73 0 L 286.73 -5.5 C 286.73 -8.27 287.06 -8.58 289.67 -8.58 C 292.29 -8.58 292.62 -8.27 292.62 -5.5 Z M 313.3 -5.5 L 313.3 0 L 315.94 0 L 315.94 -5.5 C 315.94 -9.61 314.23 -11.22 310.35 -11.22 C 308.7 -11.22 307.85 -10.93 307.41 -10.27 L 307.41 -11 L 304.77 -11 L 304.77 0 L 307.41 0 L 307.41 -5.5 C 307.41 -8.27 307.74 -8.58 310.35 -8.58 C 312.97 -8.58 313.3 -8.27 313.3 -5.5 Z M 331.03 0.22 C 334.95 0.22 336.62 -1.47 336.62 -5.5 C 336.62 -9.61 334.91 -11.22 331.03 -11.22 C 327.16 -11.22 325.45 -9.61 325.45 -5.5 C 325.45 -1.47 327.12 0.22 331.03 0.22 Z M 328.09 -5.5 C 328.09 -8.27 328.42 -8.58 331.03 -8.58 C 333.65 -8.58 333.98 -8.27 333.98 -5.5 C 333.98 -2.77 333.65 -2.42 331.03 -2.42 C 328.42 -2.42 328.09 -2.77 328.09 -5.5 Z M 348.77 0 L 348.77 -15.4 L 346.13 -15.4 L 346.13 0 Z M 363.86 0.22 C 367.77 0.22 369.45 -1.47 369.45 -5.5 C 369.45 -9.61 367.73 -11.22 363.86 -11.22 C 359.99 -11.22 358.27 -9.61 358.27 -5.5 C 358.27 -1.47 359.94 0.22 363.86 0.22 Z M 360.91 -5.5 C 360.91 -8.27 361.24 -8.58 363.86 -8.58 C 366.48 -8.58 366.81 -8.27 366.81 -5.5 C 366.81 -2.77 366.48 -2.42 363.86 -2.42 C 361.24 -2.42 360.91 -2.77 360.91 -5.5 Z M 384.54 0 C 386.19 0 387.05 -0.31 387.49 -0.95 L 387.49 0.55 C 387.49 1.72 386.76 1.98 384.91 1.98 C 383.09 1.98 382.36 1.72 382.36 0.55 L 379.72 0.55 C 379.72 3.3 381.92 4.62 384.91 4.62 C 387.93 4.62 390.13 3.32 390.13 0.55 L 390.13 -11 L 387.49 -11 L 387.49 -10.36 C 387.05 -10.98 386.19 -11.22 384.54 -11.22 C 380.67 -11.22 378.95 -9.83 378.95 -5.72 C 378.95 -1.69 380.62 0 384.54 0 Z M 381.59 -5.72 C 381.59 -8.49 381.92 -8.58 384.54 -8.58 C 387.16 -8.58 387.49 -8.49 387.49 -5.72 C 387.49 -2.99 387.16 -2.64 384.54 -2.64 C 381.92 -2.64 381.59 -2.99 381.59 -5.72 Z M 402.27 -5.72 L 402.27 -11 L 399.63 -11 L 399.63 -5.72 C 399.63 -1.61 401.35 0 405.22 0 C 406.87 0 407.73 -0.29 408.17 -0.95 L 408.17 0.55 C 408.17 1.72 407.44 1.98 405.59 1.98 C 403.77 1.98 403.04 1.72 403.04 0.55 L 400.4 0.55 C 400.4 3.3 402.6 4.62 405.59 4.62 C 408.61 4.62 410.81 3.32 410.81 0.55 L 410.81 -11 L 408.17 -11 L 408.17 -5.72 C 408.17 -2.95 407.84 -2.64 405.22 -2.64 C 402.6 -2.64 402.27 -2.95 402.27 -5.72 Z" stroke-linecap="round" />
</g>
</g>
</g>
<g transform="matrix(1.9211538461538462 0 0 1.9211538461538462 627.0861900933228 390.75377288708603)" id="tagline-b9dabbc1-e1fd-4451-8d37-3e16a44c5515-logo"  >
<g style=""  paint-order="stroke"   >
		<g transform="matrix(1 0 0 1 0 0)" id="tagline-b9dabbc1-e1fd-4451-8d37-3e16a44c5515-logo-path-0"  >
<path style="stroke: none; stroke-width: 0; stroke-dasharray: none; stroke-linecap: butt; stroke-dashoffset: 0; stroke-linejoin: miter; stroke-miterlimit: 4; fill: rgb(255,255,255); fill-rule: nonzero; opacity: 1;"  paint-order="stroke"  transform=" translate(-35.075, 30.540000000000003)" d="M 35.86 0.87 C 55.32 0.87 65.27 -6.02 65.7 -19.98 L 65.7 -32.2 L 37.69 -32.2 L 37.69 -19.98 L 50.78 -19.98 C 50.17 -14.22 43.54 -11.34 35.86 -11.34 C 24.61 -11.34 19.2 -17.1 19.2 -30.63 C 19.2 -43.63 24.26 -49.74 35.86 -49.74 C 44.33 -49.74 50.96 -47.12 50.96 -40.14 L 65.79 -40.14 C 64.74 -54.71 53.31 -61.95 35.86 -61.95 C 14.57 -61.95 4.36 -52.35 4.36 -30.63 C 4.36 -9.34 13.96 0.87 35.86 0.87 Z" stroke-linecap="round" />
</g>
</g>
</g>
<g transform="matrix(3.884857241387173 0 0 3.884857241387173 656.1866890241893 447.6560049434352)" id="shape-e938ac1e-fbaa-4ebb-a937-c8318ce9594c"  >
<g style="opacity: 0.3;"  paint-order="stroke"   >
		<g transform="matrix(1 0 0 1 0 0)" id="path-01"  >
<path style="stroke: none; stroke-width: 1; stroke-dasharray: none; stroke-linecap: butt; stroke-dashoffset: 0; stroke-linejoin: miter; stroke-miterlimit: 4; fill: rgb(66,66,66); fill-rule: nonzero; opacity: 1;"  paint-order="stroke"  transform=" translate(-124.99995554521651, -84.37184204826369)" d="M 238.96662 145.81582 C 237.53016 145.52383 237.01234 144.78018 236.13544000000002 143.70303 C 235.30866 142.70059 234.25641000000002 142.25821000000002 233.00367000000003 142.05752 C 231.87623000000002 141.87393 231.08289000000002 141.53115000000003 230.39808000000002 140.621 C 229.75495 139.75284000000002 227.78407 136.32852 230.01386000000002 136.33682000000002 C 230.53998 136.34512 230.85737000000003 135.76065000000003 230.60682000000003 135.31827 C 228.97828000000004 132.42862000000002 227.53352000000004 129.69766 227.14936000000003 126.34854000000001 C 226.68165000000002 122.29825000000001 226.72340000000003 118.20596000000002 226.34760000000003 114.14737000000001 C 225.98011000000002 110.10538000000001 225.79639000000003 106.05460000000001 225.74628000000004 102.00430000000001 C 225.71289000000004 98.78067000000001 224.69403000000005 95.34805000000001 225.26190000000005 92.13272000000002 C 226.04693000000006 92.61710000000002 226.92383000000007 92.84268000000002 227.88428000000005 92.54190000000003 C 228.23499000000004 92.43350000000002 228.51898000000006 91.95743000000003 228.26007000000004 91.60684000000003 C 222.50720000000004 83.89541000000003 225.12262000000004 74.07168000000003 224.28082000000003 65.13418000000003 C 224.25238000000004 65.12197000000003 224.22699000000003 65.11709000000003 224.19836000000004 65.10488000000002 C 219.70361000000003 63.160540000000026 215.63928000000004 59.63418000000002 209.43792000000005 57.538470000000025 C 214.32549000000006 57.499410000000026 218.79485000000005 60.134660000000025 223.12524000000005 62.08144000000003 C 223.94281000000004 62.44912000000003 224.78582000000006 62.77675000000003 225.63842000000005 63.088280000000026 C 227.09148000000005 63.487210000000026 228.57958000000005 63.783590000000025 230.06396000000007 63.687890000000024 C 232.61950000000007 63.51260000000003 235.22515000000007 62.81924000000002 237.48840000000007 61.624900000000025 C 239.07940000000008 60.785540000000026 240.28985000000006 59.525780000000026 241.35748000000007 58.11855000000003 C 240.70569000000006 57.625390000000024 240.40338000000006 56.73916000000003 240.39013000000006 55.721580000000024 C 239.36657000000005 56.60342000000002 238.03307000000007 57.879290000000026 236.68365000000006 58.10976000000002 C 235.28710000000007 58.348040000000026 233.91394000000005 58.03749000000002 232.62579000000005 57.49404000000002 C 231.13006000000004 56.86318000000002 229.91424000000006 55.43545000000002 228.47485000000006 54.69131000000002 C 227.65899000000007 54.26992000000002 226.22540000000006 53.067770000000024 223.44922000000005 52.26260000000002 C 224.89765000000006 52.01016000000002 226.68018000000006 52.76846000000002 227.98071000000004 53.34317000000002 C 229.39544000000004 53.96915000000002 230.72906000000003 54.75577000000002 232.11944000000005 55.430570000000024 C 233.35046000000006 56.02823000000002 234.69396000000006 56.57022000000003 236.08923000000004 56.477450000000026 C 237.91754000000003 56.35636000000002 239.52301000000006 55.36368000000002 240.72924000000003 54.09073000000003 C 241.16167000000004 53.63468000000003 241.46313000000004 53.59659000000003 241.32281000000003 54.169830000000026 C 241.07873000000004 55.16641000000003 241.55401000000003 56.131260000000026 242.31866000000002 56.77725000000002 C 243.17285 55.50967000000002 243.97033000000002 54.18936000000002 244.84600000000003 52.97305000000002 C 245.21343000000005 52.956450000000025 245.58092000000002 52.922760000000025 245.94836000000004 52.82315000000002 C 247.50170000000003 52.40518000000002 248.76281000000003 51.01065000000002 249.38079000000005 49.49893000000002 C 249.99877000000006 47.987210000000026 250.05724000000004 46.383700000000026 249.96538000000004 44.838770000000025 C 249.92363000000003 44.07900000000002 249.84007000000003 43.302150000000026 249.49773000000005 42.659080000000024 C 249.36406000000005 42.42519000000002 249.15526000000006 42.183010000000024 248.87969000000004 41.966210000000025 L 248.87969000000004 41.95742000000003 C 248.69597000000005 41.815330000000024 248.48717000000005 41.690330000000024 248.27001000000004 41.57314000000003 C 248.21990000000005 41.48183000000003 248.14477000000005 41.397850000000034 248.03625000000005 41.32314000000003 C 247.75518000000005 41.15566000000003 247.48590000000004 40.97988000000003 247.22216000000006 40.79970000000003 C 243.46209000000005 41.86562000000003 239.70446000000007 40.40810000000003 236.68365000000006 42.79091000000003 C 238.35382000000007 39.376360000000034 242.76629000000005 40.284070000000035 246.05126000000007 39.907610000000034 C 244.54308000000006 38.641500000000036 243.33935000000008 37.12197000000003 242.34057000000007 35.326560000000036 C 241.11285000000007 33.12197000000003 240.36962000000008 30.700100000000035 239.71819000000008 28.269430000000035 C 238.34954000000008 23.204000000000036 236.3051700000001 18.438860000000034 233.0190900000001 14.331930000000035 C 233.13268000000008 14.135640000000036 233.2725700000001 13.985740000000035 233.45897000000008 13.939350000000035 C 234.29356000000007 13.732810000000034 234.95714000000007 15.480370000000034 235.15032000000008 16.029190000000035 C 235.11626000000007 15.118060000000035 234.52514000000008 12.867080000000035 235.82152000000008 12.866100000000035 C 237.24755000000007 12.865610000000036 238.2836800000001 15.744030000000034 238.52379000000008 16.811900000000037 C 239.18150000000009 14.225470000000037 238.89092000000008 8.721080000000036 235.54515000000006 8.335830000000037 C 233.26366000000007 8.073130000000036 231.99571000000006 9.763560000000037 231.01976000000008 11.541880000000036 C 223.15843000000007 0.9564300000000365 203.8473400000001 -1.9234499999999635 192.29662000000008 1.1771300000000355 C 205.19671000000008 -1.1563699999999644 223.41277000000008 3.1263500000000355 230.46300000000008 15.132700000000035 C 228.8690100000001 17.484750000000034 225.78240000000008 18.282110000000035 223.03209000000007 18.390020000000035 C 219.28227000000007 18.532110000000035 215.49071000000006 17.713750000000037 211.89964000000006 16.703010000000035 C 208.21666000000008 15.650280000000034 204.61723000000006 14.314340000000035 200.95927000000006 13.161990000000035 C 197.40159000000006 12.034550000000035 193.82713000000007 10.990600000000034 190.06901000000005 10.982300000000034 C 189.47965000000005 10.553100000000034 188.79807000000005 10.241580000000035 188.07817000000006 10.036500000000034 C 187.63731000000007 9.770390000000035 187.16093000000006 9.547240000000034 186.59965000000005 9.435430000000034 C 184.60893000000004 9.039430000000033 182.91856000000004 9.145390000000035 181.19938000000005 10.304080000000035 C 179.88468000000006 11.190310000000034 178.81535000000005 12.301640000000035 177.93931000000003 13.565310000000034 C 163.48197000000005 21.668830000000035 146.89390000000003 25.853880000000032 130.31468000000004 25.530150000000035 C 120.50175000000004 25.338260000000034 110.99779000000004 23.058470000000035 101.31029000000004 21.764040000000033 C 96.52489000000004 21.12097000000003 91.67259000000004 20.778200000000034 86.85387000000004 21.237670000000033 C 82.51952000000004 21.646850000000033 78.29369000000004 22.790890000000033 74.22655000000005 24.319210000000034 C 65.86693000000005 27.442750000000032 57.419420000000045 32.02136000000003 50.02831000000005 37.04919000000003 C 51.74035000000005 34.902710000000035 71.94567000000005 9.27136000000003 103.75707000000006 7.265990000000031 C 89.89428000000005 7.28406000000003 67.78710000000005 8.36804000000003 41.49096000000006 39.494510000000034 C 32.56786000000006 50.056520000000035 25.16210000000006 59.988160000000036 18.698110000000057 72.20642000000004 C 18.372300000000056 72.83288000000003 19.123770000000057 73.34216000000004 19.633290000000056 72.92468000000004 C 21.128290000000057 71.72204000000004 22.606430000000056 70.48620000000004 24.076410000000056 69.24157000000004 C 18.146720000000055 82.91296000000004 14.280150000000056 97.43591000000004 7.289910000000056 110.63952000000003 C 5.193720000000056 114.58972000000003 2.8220100000000556 118.38952000000003 0.10790000000005584 121.93884000000003 C -0.24304999999994414 122.39001000000003 0.3331200000000558 122.98279000000002 0.8176200000000559 122.85779000000002 C 5.511220000000056 121.62195000000003 9.862300000000056 119.33338000000002 13.503410000000057 116.15174000000002 C 13.144280000000057 117.26258000000001 12.593130000000057 118.29774000000002 11.883290000000057 119.24988000000002 C 11.540880000000058 119.72595000000001 12.117050000000058 120.42761000000002 12.643300000000057 120.24402000000002 C 18.355460000000058 118.25623000000002 23.333000000000055 115.00769000000003 26.949210000000058 110.28064000000002 C 26.78222000000006 111.83386000000002 26.640130000000056 113.39539000000002 26.523180000000057 114.96570000000003 C 26.280990000000056 118.28943000000002 26.047110000000057 121.62195000000003 25.303940000000058 124.88709000000003 C 25.13695000000006 125.60535000000003 26.072250000000057 125.98963000000003 26.481430000000056 125.37977000000004 C 26.673570000000055 125.08778000000004 26.890610000000056 124.82020000000004 27.116200000000056 124.56971000000004 C 27.191400000000055 125.48817000000004 27.049550000000057 126.46571000000004 26.940910000000056 127.35047000000004 C 26.773920000000057 128.73719000000006 26.598500000000055 130.09852000000004 26.581780000000055 131.50135000000003 C 26.556630000000055 134.65028000000004 26.640130000000056 137.69813000000002 27.074460000000055 140.81336000000005 C 27.642450000000053 144.90516000000005 28.310300000000055 150.44227000000004 31.926630000000056 153.08973000000003 C 33.079220000000056 153.93348000000003 34.398680000000056 154.15907000000004 35.810050000000054 154.03358000000003 C 36.92907000000005 153.94178000000002 37.95629000000005 153.85829000000004 39.025380000000055 154.29286000000002 C 40.027460000000055 154.69325 40.90429000000005 155.34462000000002 41.73949000000005 156.02138000000002 C 42.173820000000056 156.37197000000003 42.800160000000055 156.15517000000003 42.83361000000005 155.57021000000003 C 42.89208000000005 154.56826000000004 42.55785000000005 153.73281000000003 42.10693000000005 152.93935000000002 C 43.718870000000045 153.71621000000002 45.23034000000005 154.68496000000002 46.65869000000005 155.77919000000003 C 47.10937000000005 156.12148000000002 47.71924000000005 155.64540000000002 47.72742000000005 155.16103000000004 C 47.74414000000005 154.09169000000003 47.35999000000005 153.14833000000004 47.10108000000005 152.15468000000004 C 48.22852000000005 152.16298000000003 49.439460000000054 152.66396000000003 50.40845000000005 153.09804000000005 C 51.56909000000005 153.61611000000005 52.74658000000005 154.25917000000004 53.68213000000005 155.12783000000005 C 54.10803000000005 155.52871000000005 55.02673000000005 155.28652000000005 54.95996000000005 154.60146000000003 C 54.826170000000054 153.36562000000004 54.25000000000005 152.40517000000003 53.68213000000005 151.37783000000002 C 55.19373000000005 151.46133 56.82227000000005 152.67226000000002 57.75745000000005 153.64101000000002 C 58.46741000000005 154.37587000000002 59.57825000000005 153.26552 58.876710000000045 152.52187000000004 C 58.876710000000045 152.51357000000004 58.868290000000044 152.50527000000002 58.85986000000005 152.49697000000003 C 58.910150000000044 152.40517000000003 58.951900000000045 152.30459000000002 58.951900000000045 152.17129000000003 C 58.91845000000004 149.47402000000002 57.39013000000004 147.77822000000003 55.61962000000005 145.93252000000004 C 53.38964000000005 143.59463000000005 52.479480000000045 140.99697000000003 52.663200000000046 137.78164000000004 C 52.963740000000044 132.50381000000004 55.83678000000005 128.03555000000003 58.016350000000045 123.35879000000004 C 58.024770000000046 123.95205000000004 58.03320000000004 124.54483000000005 58.04150000000004 125.14590000000004 C 58.04980000000004 125.52188000000004 58.50085000000004 125.83926000000004 58.84326000000004 125.59707000000004 C 62.63476000000004 122.94961000000005 63.862430000000046 118.46475000000004 65.64966000000004 114.39785000000005 C 65.53272000000004 115.40810000000005 65.39917000000004 116.41885000000005 65.41577000000004 117.43789000000005 C 65.41577000000004 118.07217000000006 66.31763000000004 118.34805000000006 66.63513000000003 117.77187000000005 C 67.86279000000003 115.54189000000005 68.87329000000003 113.16982000000004 69.69995000000003 110.73134000000005 C 69.73340000000003 111.55849000000005 69.78369000000004 112.38515000000004 69.84216000000004 113.22011000000005 C 69.99243000000004 115.20790000000005 70.02588000000003 117.20400000000005 70.04260000000004 119.20009000000005 C 70.07580000000003 122.35634000000005 70.19287000000004 126.46571000000004 67.62060000000004 128.76210000000003 C 67.07775000000004 129.24648000000002 67.65405000000004 130.12343000000004 68.31372000000003 129.94814000000002 C 69.39111000000003 129.67275000000004 70.27624000000003 129.12148000000002 71.09485000000004 128.44472000000002 C 71.08643000000004 130.27382000000003 70.71045000000004 132.07802 70.64380000000004 133.91493000000003 C 70.56030000000004 136.51259000000002 70.67725000000004 139.10975000000002 70.71045000000004 141.70692000000003 C 70.71887000000004 142.28309000000002 71.56238000000003 142.40858000000003 71.72119000000004 141.84071000000003 C 72.11377000000003 140.42079000000004 72.48950000000004 139.00087000000002 73.24939000000003 137.74842000000004 C 74.45190000000004 142.16639000000004 76.61499000000003 147.69471000000004 81.35864000000004 148.93934000000004 C 83.97265000000003 149.63270000000006 86.81201000000004 149.54872000000003 89.48449000000004 149.74940000000004 C 92.77514000000004 149.99159000000003 95.99865000000004 150.45936000000003 99.02197000000004 151.82899000000003 C 99.41443000000004 152.01258000000004 99.89050000000005 151.87879000000004 100.01562000000004 151.42811000000003 C 100.23291000000005 150.64295000000004 100.23291000000005 149.86610000000005 100.07421000000004 149.10633000000004 C 101.83617000000004 149.82459000000003 103.34789000000004 151.02723000000003 104.87621000000004 152.17957000000004 C 105.29393000000005 152.49695000000003 105.83666000000004 152.05408000000003 105.86168000000005 151.61170000000004 C 105.92015000000005 150.37586000000005 105.75316000000005 149.13953000000004 105.19359000000004 148.05408000000006 C 107.20629000000004 147.94519000000005 109.31908000000004 149.74939000000006 110.78893000000005 150.85144000000005 C 111.18163000000006 151.14392000000007 111.62401000000006 150.72644000000005 111.66588000000004 150.34216000000006 C 111.80797000000004 149.16491000000008 111.60765000000005 148.07068000000007 111.11473000000004 147.04333000000005 C 112.41771000000004 147.03503000000006 113.67039000000004 147.18542000000005 114.84782000000004 147.84509000000006 C 115.44908000000004 148.18738000000005 115.94188000000004 147.42761000000004 115.54942000000004 146.93493000000007 C 113.84568000000004 144.82214000000008 112.17540000000004 142.41686000000007 109.61143000000004 141.28942000000006 C 108.13328000000004 140.63805000000008 106.42955000000003 140.45397000000006 104.85118000000004 140.17028000000008 C 103.18919000000004 139.86950000000007 101.53563000000004 139.58581000000007 99.89891000000004 139.16784000000007 C 98.72948000000004 138.86706000000007 97.47679000000004 138.51647000000008 96.51659000000004 137.74841000000006 C 95.38890000000004 136.84655000000006 95.28881000000004 135.57702000000006 95.47264000000004 134.23230000000007 C 95.88182000000005 131.39294000000007 96.94237000000004 128.49500000000006 98.20347000000004 125.92273000000006 C 99.36424000000004 123.54285000000006 101.03452000000004 121.32117000000005 101.61082000000003 118.74890000000006 C 101.81114000000004 119.53406000000007 101.87803000000004 120.38562000000006 101.95335000000003 121.08728000000006 C 102.02830000000003 121.76355000000007 102.88011000000003 121.89734000000007 103.13084000000003 121.24597000000006 C 103.91575000000003 119.17468000000005 105.00145000000003 117.20398000000006 105.57762000000004 115.04919000000005 C 105.98680000000004 113.52917000000005 106.07054000000004 111.70056000000005 106.83873000000004 110.30554000000005 C 106.86375000000004 110.27234000000006 106.86375000000004 110.23913000000005 106.87218000000004 110.20544000000005 C 108.61766000000004 110.38073000000006 110.37133000000004 110.48913000000005 112.12523000000004 110.54773000000006 C 115.91679000000005 110.67322000000006 119.70006000000005 110.23035000000006 123.48326000000004 110.29724000000006 C 123.54991000000004 111.94226000000006 123.64189000000005 113.59607000000005 123.77544000000005 115.24109000000006 C 123.83397000000005 115.90906000000005 124.81102000000004 116.34363000000006 125.16191000000005 115.61707000000006 C 125.57109000000005 114.78211000000006 125.97197000000006 113.94666000000005 126.38115000000005 113.10340000000005 C 127.45018000000005 121.25428000000005 132.14354000000006 128.41151000000005 137.10423000000006 134.80848000000006 C 139.96055000000007 138.50819000000007 142.94188000000005 142.11610000000007 145.51420000000005 146.01600000000005 C 148.11155000000005 149.96620000000004 149.94047000000003 154.05018000000004 151.23496000000006 158.58534000000006 C 151.89475000000004 160.89003000000005 152.67142000000007 163.29530000000005 154.42508000000007 165.02430000000007 C 155.98691000000005 166.55262000000008 158.12491000000006 167.36268000000007 160.27939000000006 166.81141000000008 C 160.48819000000006 166.7611200000001 160.61362000000005 166.65272000000007 160.70535000000007 166.51893000000007 C 163.39450000000008 166.46864000000008 165.95004000000006 166.97840000000008 168.29684000000006 168.63172000000006 C 168.76455000000007 168.95740000000006 169.49105000000006 168.52332000000007 169.45761000000007 167.96375000000006 C 169.39932000000007 167.04529000000005 169.12363000000008 166.21814000000006 168.66428000000008 165.49988000000008 C 171.1195400000001 165.7923600000001 173.44126000000009 166.75281000000007 175.37882000000008 168.33972000000009 C 175.80478000000008 168.6903100000001 176.57303000000007 168.49011000000007 176.54795000000007 167.84704000000008 C 176.52311000000006 167.00329000000008 176.28922000000006 166.22643000000008 175.89670000000007 165.54186000000007 C 177.60025000000007 166.10143000000008 179.13700000000006 167.07848000000007 180.38968000000006 168.39782000000008 C 180.79892000000007 168.8323900000001 181.61734000000004 168.51501000000007 181.59226000000007 167.90514000000007 C 181.53391000000008 166.58580000000006 181.18302000000006 165.37487000000007 180.57340000000008 164.27233000000007 C 182.3022200000001 164.89879000000008 183.79715000000007 165.95934000000005 185.11649000000008 167.35436000000007 C 185.53409000000008 167.78844000000007 186.36100000000008 167.46276000000006 186.3359700000001 166.84459000000007 C 186.3192500000001 166.48570000000007 186.31088000000008 166.12633000000008 186.29422000000008 165.76744000000008 C 186.2775000000001 165.55846000000008 186.2023000000001 165.4080600000001 186.08542000000008 165.30797000000007 C 186.13553000000007 161.93395000000007 184.64066000000008 158.65172000000007 182.03488000000007 156.48912000000007 C 180.71548000000007 155.38658000000007 179.20383000000007 154.69322000000008 177.55862000000008 154.20055000000008 C 175.67123000000007 153.6243800000001 173.66677000000007 153.24889000000007 172.13021000000006 151.90416000000008 C 169.24880000000007 149.38170000000008 168.12148000000008 145.03062000000008 167.00234000000006 141.51500000000007 C 165.65786000000006 137.30553000000006 164.62227000000007 133.00475000000006 163.89565000000007 128.65367000000006 C 163.16079000000008 124.26890000000006 162.78481000000008 119.83433000000007 162.70144000000008 115.39976000000006 C 162.93533000000008 115.62535000000005 163.1691500000001 115.85093000000006 163.41122000000007 116.07603000000006 C 164.02084000000008 116.66099000000006 164.79763000000008 115.92613000000006 164.50528000000008 115.23277000000006 C 162.80154000000007 111.21568000000006 162.38400000000007 106.81480000000006 163.21915000000007 102.55552000000006 C 163.85385000000008 103.08189000000006 164.48856000000006 103.61607000000006 165.13999000000007 104.13364000000006 C 165.72458000000006 104.60971000000006 166.51810000000006 104.16733000000005 166.38437000000008 103.40708000000005 C 166.24246000000008 102.61411000000005 166.12540000000007 101.81235000000005 166.02530000000007 101.01890000000004 C 168.19656000000006 101.00230000000005 170.44321000000008 100.58482000000005 172.55618000000007 100.19175000000004 C 174.90274000000008 99.76597000000004 177.21609000000007 99.15659000000004 179.48764000000006 98.42173000000004 C 182.71139000000005 97.37778000000004 185.99350000000007 96.09165000000004 189.03342000000006 94.45444000000003 C 188.45719000000005 98.31284000000004 186.17728000000005 101.87876000000003 182.87839000000005 103.90854000000003 C 182.29386000000005 104.26743000000003 182.48587000000006 105.34458000000004 183.24582000000007 105.28647000000004 C 185.46744000000007 105.10239000000004 187.91440000000006 104.38413000000004 189.59299000000007 102.83090000000004 C 189.62638000000007 104.73520000000005 189.07517000000007 106.69760000000004 187.67215000000007 107.99203000000004 C 187.28799000000006 108.35141000000004 187.68887000000007 109.01937000000004 188.18155000000007 108.86898000000004 C 190.01889000000008 108.30941000000004 191.53049000000007 107.23226000000004 192.87509000000009 105.91244000000003 C 193.5682700000001 108.15902000000003 193.55990000000008 110.56430000000003 194.20297000000008 112.82748000000004 C 195.00473000000008 115.64193000000003 196.40774000000008 118.25619000000003 197.89425000000008 120.75326000000004 C 199.43093000000007 123.35873000000004 201.16805000000008 125.83920000000003 202.99703000000008 128.24447000000004 C 204.70907000000008 130.48226000000003 206.5964600000001 132.60385000000002 208.20827000000008 134.91683000000003 C 209.86183000000008 137.28060000000002 211.28157000000007 139.81966000000003 212.3756300000001 142.49203000000003 C 213.39449000000008 144.97250000000003 213.9373400000001 147.62826000000004 215.0230300000001 150.09164000000004 C 215.8331500000001 151.95394000000005 217.2528900000001 154.34262000000004 219.27388000000008 155.08578000000003 C 220.94417000000007 155.70394000000002 222.78981000000007 155.21127000000004 224.46846000000008 155.97103000000004 C 225.55415000000008 156.47201000000004 226.52290000000008 157.19906000000003 227.62532000000007 157.67464000000004 C 228.73610000000008 158.15071000000003 229.90523000000007 158.30941000000004 231.09950000000006 158.18441000000004 C 233.98909000000006 157.87533000000005 236.67824000000007 156.58920000000003 239.32564000000005 155.46175000000005 C 240.14406000000005 156.73128000000005 240.92073000000005 158.09212000000005 241.12117000000006 159.57894000000005 C 241.17964000000006 160.01302000000004 241.82271000000006 160.12972000000005 242.09834000000006 159.83773000000005 C 243.43452000000008 158.35970000000006 243.50136000000006 155.95443000000006 243.49299000000008 154.07503000000005 C 243.49299000000008 151.81185000000005 243.22578000000007 149.22298000000006 241.77259000000006 147.38607000000005 C 241.02930000000006 146.45052000000004 240.11066000000005 146.04134000000005 238.96656000000007 145.81576000000004 Z M 241.21949 46.22598 C 241.76997 46.23623 242.3401 46.25088 242.83649 46.48916 C 244.16791 47.127829999999996 243.27021 48.85977 242.08332 47.33047 C 241.55665 46.652249999999995 240.65864 46.40567 239.82489999999999 46.19912 C 240.28974 46.2084 240.75465 46.21719 241.21948999999998 46.22598 Z M 184.48225 30.94082 C 179.73011 30.97695 176.15058 25.6376 177.93489 21.204 C 177.97791999999998 23.16591 180.00734 28.43593 182.4947 28.385640000000002 C 180.53828 23.421280000000003 180.73158 14.652730000000002 190.58911999999998 16.787010000000002 C 185.94299999999998 18.42275 183.06013 22.525290000000002 184.48225 30.940820000000002 Z M 208.02467 31.579 C 207.81903999999997 31.539450000000002 207.67383999999998 31.250880000000002 207.86592 31.08388 C 209.30238 29.772840000000002 211.44868 29.42226 213.2693 30.08193 C 214.15455 30.39931 214.93958999999998 30.91738 215.53248 31.64345 C 216.11706999999998 32.37001 216.53467999999998 33.22206 217.24457999999998 33.84023 C 217.44501999999997 34.015519999999995 217.40327 34.3163 217.24457999999998 34.4999 C 216.88545 34.917379999999994 216.33424 35.09267 215.82484 35.27627 C 215.26527 35.476949999999995 214.68067 35.62734 214.08772 35.719139999999996 C 213.01874999999998 35.886129999999994 211.94142 35.810939999999995 210.93921999999998 35.38516 C 209.34412999999998 34.7001 208.50818999999998 33.30948 209.06763999999998 31.503809999999998 C 208.90059 31.5707 208.20582 31.614649999999997 208.02467 31.579009999999997 Z" stroke-linecap="round" />
</g>
</g>
</g>
</svg>